<svg width="32" height="32" viewBox="0 0 32 32" fill="none" xmlns="http://www.w3.org/2000/svg">
<!-- Window frame -->
<rect x="4" y="4" width="12" height="12" rx="1" fill="none" stroke="#222425" stroke-width="1"/>
<!-- Horizontal blinds/slats -->
<rect x="5" y="6" width="10" height="1" fill="#222425"/>
<rect x="5" y="8" width="10" height="1" fill="#222425"/>
<rect x="5" y="10" width="10" height="1" fill="#222425"/>
<rect x="5" y="12" width="10" height="1" fill="#222425"/>
<rect x="5" y="14" width="10" height="1" fill="#222425"/>
<!-- Control cord -->
<circle cx="16.5" cy="8" r="0.5" fill="#222425"/>
<rect x="16.25" y="8" width="0.5" height="6" fill="#222425"/>
<circle cx="16.5" cy="14" r="0.8" fill="none" stroke="#222425" stroke-width="0.5"/>
<!-- Control dials (same as lights/switches) -->
<path fill-rule="evenodd" clip-rule="evenodd" d="M21.8293 24H27C27.5523 24 28 24.4477 28 25C28 25.5523 27.5523 26 27 26H21.8293C21.4175 27.1652 20.3062 28 19 28C17.3431 28 16 26.6569 16 25C16 23.3431 17.3431 22 19 22C20.3062 22 21.4175 22.8348 21.8293 24ZM19 24C19.5523 24 20 24.4477 20 25C20 25.5523 19.5523 26 19 26C18.4477 26 18 25.5523 18 25C18 24.4477 18.4477 24 19 24Z" fill="#222425"/>
<path fill-rule="evenodd" clip-rule="evenodd" d="M17 18C16.4477 18 16 18.4477 16 19C16 19.5523 16.4477 20 17 20H22.1707C22.5825 21.1652 23.6938 22 25 22C26.6569 22 28 20.6569 28 19C28 17.3431 26.6569 16 25 16C23.6938 16 22.5825 16.8348 22.1707 18H17ZM24 19C24 19.5523 24.4477 20 25 20C25.5523 20 26 19.5523 26 19C26 18.4477 25.5523 18 25 18C24.4477 18 24 18.4477 24 19Z" fill="#222425"/>
</svg>