<svg width="32" height="32" viewBox="0 0 32 32" fill="none" xmlns="http://www.w3.org/2000/svg">
<rect x="4" y="10" width="12" height="4" rx="2" ry="2" fill="#222425"/>
<circle cx="13" cy="12" r="1.5" fill="white"/>
<path d="M6 7C5.44772 7 5 6.55228 5 6C5 5.44772 5.44772 5 6 5C6.55228 5 7 5.44772 7 6C7 6.55228 6.55228 7 6 7Z" fill="#222425"/>
<path d="M10 7C9.44772 7 9 6.55228 9 6C9 5.44772 9.44772 5 10 5C10.5523 5 11 5.44772 11 6C11 6.55228 10.5523 7 10 7Z" fill="#222425"/>
<path d="M14 7C13.4477 7 13 6.55228 13 6C13 5.44772 13.4477 5 14 5C14.5523 5 15 5.44772 15 6C15 6.55228 14.5523 7 14 7Z" fill="#222425"/>
<path d="M6 17C5.44772 17 5 16.5523 5 16C5 15.4477 5.44772 15 6 15C6.55228 15 7 15.4477 7 16C7 16.5523 6.55228 17 6 17Z" fill="#222425"/>
<path d="M10 17C9.44772 17 9 16.5523 9 16C9 15.4477 9.44772 15 10 15C10.5523 15 11 15.4477 11 16C11 16.5523 10.5523 17 10 17Z" fill="#222425"/>
<path d="M14 17C13.4477 17 13 16.5523 13 16C13 15.4477 13.4477 15 14 15C14.5523 15 15 15.4477 15 16C15 16.5523 14.5523 17 14 17Z" fill="#222425"/>
<path fill-rule="evenodd" clip-rule="evenodd" d="M21.8293 24H27C27.5523 24 28 24.4477 28 25C28 25.5523 27.5523 26 27 26H21.8293C21.4175 27.1652 20.3062 28 19 28C17.3431 28 16 26.6569 16 25C16 23.3431 17.3431 22 19 22C20.3062 22 21.4175 22.8348 21.8293 24ZM19 24C19.5523 24 20 24.4477 20 25C20 25.5523 19.5523 26 19 26C18.4477 26 18 25.5523 18 25C18 24.4477 18.4477 24 19 24Z" fill="#222425"/>
<path fill-rule="evenodd" clip-rule="evenodd" d="M17 18C16.4477 18 16 18.4477 16 19C16 19.5523 16.4477 20 17 20H22.1707C22.5825 21.1652 23.6938 22 25 22C26.6569 22 28 20.6569 28 19C28 17.3431 26.6569 16 25 16C23.6938 16 22.5825 16.8348 22.1707 18H17ZM24 19C24 19.5523 24.4477 20 25 20C25.5523 20 26 19.5523 26 19C26 18.4477 25.5523 18 25 18C24.4477 18 24 18.4477 24 19Z" fill="#222425"/>
</svg>