<svg width="32" height="32" viewBox="0 0 32 32" fill="none" xmlns="http://www.w3.org/2000/svg">
<path d="M5 24V8C5 6.34315 6.34315 5 8 5H24C25.6579 5 27 6.34612 27 8.00195V14C27 14.5523 26.5523 15 26 15C25.4477 15 25 14.5523 25 14V8.00195C25 7.44864 24.5513 7 24 7H8C7.44772 7 7 7.44772 7 8V24C7 24.5523 7.44772 25 8 25H10C10.5523 25 11 25.4477 11 26C11 26.5523 10.5523 27 10 27H8C6.34315 27 5 25.6569 5 24Z" fill="black"/>
<path d="M26 9C26.5523 9 27 9.44772 27 10C27 10.5523 26.5523 11 26 11H6C5.44772 11 5 10.5523 5 10C5 9.44772 5.44772 9 6 9H26Z" fill="black"/>
<path d="M26 13C26.5523 13 27 13.4477 27 14C27 14.5523 26.5523 15 26 15H6C5.44772 15 5 14.5523 5 14C5 13.4477 5.44772 13 6 13H26Z" fill="black"/>
<path d="M10 17C10.5523 17 11 17.4477 11 18C11 18.5523 10.5523 19 10 19H6C5.44772 19 5 18.5523 5 18C5 17.4477 5.44772 17 6 17H10Z" fill="black"/>
<path d="M10 21C10.5523 21 11 21.4477 11 22C11 22.5523 10.5523 23 10 23H6C5.44772 23 5 22.5523 5 22C5 21.4477 5.44772 21 6 21H10Z" fill="black"/>
<path d="M25 20C25 19.4477 24.5523 19 24 19H16C15.4477 19 15 19.4477 15 20V24C15 24.5523 15.4477 25 16 25H24C24.5523 25 25 24.5523 25 24V20ZM27 24C27 25.6569 25.6569 27 24 27H16C14.3431 27 13 25.6569 13 24V20C13 18.3431 14.3431 17 16 17H24C25.6569 17 27 18.3431 27 20V24Z" fill="black"/>
<path d="M18 22C18 22.5523 17.5523 23 17 23C16.4477 23 16 22.5523 16 22C16 21.4477 16.4477 21 17 21C17.5523 21 18 21.4477 18 22Z" fill="black"/>
<path d="M21 22C21 22.5523 20.5523 23 20 23C19.4477 23 19 22.5523 19 22C19 21.4477 19.4477 21 20 21C20.5523 21 21 21.4477 21 22Z" fill="black"/>
<path d="M24 22C24 22.5523 23.5523 23 23 23C22.4477 23 22 22.5523 22 22C22 21.4477 22.4477 21 23 21C23.5523 21 24 21.4477 24 22Z" fill="black"/>
</svg>
