<svg width="32" height="32" viewBox="0 0 32 32" fill="none" xmlns="http://www.w3.org/2000/svg">
<rect x="8" y="13" width="16" height="6" rx="3" ry="3" fill="#222425"/>
<circle cx="19" cy="16" r="2.5" fill="white"/>
<path fill-rule="evenodd" clip-rule="evenodd" d="M10 9C10.5523 9 11 8.55228 11 8C11 7.44772 10.5523 7 10 7C9.44772 7 9 7.44772 9 8C9 8.55228 9.44772 9 10 9Z" fill="#222425"/>
<path fill-rule="evenodd" clip-rule="evenodd" d="M16 9C16.5523 9 17 8.55228 17 8C17 7.44772 16.5523 7 16 7C15.4477 7 15 7.44772 15 8C15 8.55228 15.4477 9 16 9Z" fill="#222425"/>
<path fill-rule="evenodd" clip-rule="evenodd" d="M22 9C22.5523 9 23 8.55228 23 8C23 7.44772 22.5523 7 22 7C21.4477 7 21 7.44772 21 8C21 8.55228 21.4477 9 22 9Z" fill="#222425"/>
<path fill-rule="evenodd" clip-rule="evenodd" d="M10 25C10.5523 25 11 24.5523 11 24C11 23.4477 10.5523 23 10 23C9.44772 23 9 23.4477 9 24C9 24.5523 9.44772 25 10 25Z" fill="#222425"/>
<path fill-rule="evenodd" clip-rule="evenodd" d="M16 25C16.5523 25 17 24.5523 17 24C17 23.4477 16.5523 23 16 23C15.4477 23 15 23.4477 15 24C15 24.5523 15.4477 25 16 25Z" fill="#222425"/>
<path fill-rule="evenodd" clip-rule="evenodd" d="M22 25C22.5523 25 23 24.5523 23 24C23 23.4477 22.5523 23 22 23C21.4477 23 21 23.4477 21 24C21 24.5523 21.4477 25 22 25Z" fill="#222425"/>
</svg>