<svg width="32" height="32" viewBox="0 0 32 32" fill="none" xmlns="http://www.w3.org/2000/svg">
<path d="M4 24V20C4 19.4477 4.44772 19 5 19C5.55228 19 6 19.4477 6 20V24C6 24.5523 6.44772 25 7 25H12C12.5523 25 13 25.4477 13 26C13 26.5523 12.5523 27 12 27H7C5.34315 27 4 25.6569 4 24ZM26 24V20C26 19.4477 26.4477 19 27 19C27.5523 19 28 19.4477 28 20V24C28 25.6569 26.6569 27 25 27H20C19.4477 27 19 26.5523 19 26C19 25.4477 19.4477 25 20 25H25C25.5523 25 26 24.5523 26 24ZM4 12V8C4 6.34315 5.34315 5 7 5H12C12.5523 5 13 5.44772 13 6C13 6.55228 12.5523 7 12 7H7C6.44772 7 6 7.44772 6 8V12C6 12.5523 5.55228 13 5 13C4.44772 13 4 12.5523 4 12ZM26 12V8C26 7.44772 25.5523 7 25 7H20C19.4477 7 19 6.55228 19 6C19 5.44772 19.4477 5 20 5H25C26.6569 5 28 6.34315 28 8V12C28 12.5523 27.5523 13 27 13C26.4477 13 26 12.5523 26 12Z" fill="black"/>
<path d="M19 9C19.5523 9 20 9.44772 20 10V16C20 16.5523 19.5523 17 19 17H13C12.4477 17 12 16.5523 12 16V10C12 9.44772 12.4477 9 13 9H19ZM14 15H18V11H14V15Z" fill="black"/>
<path d="M19 15C19.5523 15 20 15.4477 20 16V22C20 22.5523 19.5523 23 19 23H13C12.4477 23 12 22.5523 12 22V16C12 15.4477 12.4477 15 13 15H19ZM14 21H18V17H14V21Z" fill="black"/>
</svg>
