<svg width="32" height="32" viewBox="0 0 32 32" fill="none" xmlns="http://www.w3.org/2000/svg">
<path d="M24.9999 8C24.9999 7.44772 24.5522 7 23.9999 7H7.99994C7.44765 7 6.99994 7.44772 6.99994 8V24C6.99994 24.5523 7.44765 25 7.99994 25H23.9999C24.5522 25 24.9999 24.5523 24.9999 24V8ZM26.9999 24C26.9999 25.6569 25.6568 27 23.9999 27H7.99994C6.34308 27 4.99994 25.6569 4.99994 24V8C4.99994 6.34315 6.34308 5 7.99994 5H23.9999C25.6568 5 26.9999 6.34315 26.9999 8V24Z" fill="black"/>
<path d="M25.6288 11.0713C26.1415 10.8664 26.7236 11.1162 26.9286 11.6289C27.1335 12.1416 26.8837 12.7236 26.371 12.9287L6.37103 20.9287C5.85833 21.1336 5.27629 20.8838 5.07123 20.3711C4.86636 19.8584 5.11617 19.2764 5.62884 19.0713L25.6288 11.0713Z" fill="black"/>
<path d="M25.6288 17.0713C26.1415 16.8664 26.7236 17.1162 26.9286 17.6289C27.1335 18.1416 26.8837 18.7236 26.371 18.9287L7.37103 26.5283C6.85835 26.7333 6.27637 26.4843 6.07123 25.9717C5.86611 25.4589 6.11606 24.877 6.62884 24.6719L25.6288 17.0713Z" fill="black"/>
<path d="M24.6288 5.47129C25.1415 5.26642 25.7236 5.51623 25.9286 6.02891C26.1335 6.54161 25.8837 7.12364 25.371 7.32871L6.37103 14.9283C5.85835 15.1333 5.27637 14.8843 5.07123 14.3717C4.86611 13.8589 5.11606 13.277 5.62884 13.0719L24.6288 5.47129Z" fill="black"/>
</svg>
