<svg width="32" height="32" viewBox="0 0 32 32" fill="none" xmlns="http://www.w3.org/2000/svg">
<path d="M25 8C25 7.44772 24.5523 7 24 7H8C7.44772 7 7 7.44772 7 8V24C7 24.5523 7.44772 25 8 25H24C24.5523 25 25 24.5523 25 24V8ZM27 24C27 25.6569 25.6569 27 24 27H8C6.34315 27 5 25.6569 5 24V8C5 6.34315 6.34315 5 8 5H24C25.6569 5 27 6.34315 27 8V24Z" fill="black"/>
<path d="M26 9C26.5523 9 27 9.44772 27 10C27 10.5523 26.5523 11 26 11H6C5.44772 11 5 10.5523 5 10C5 9.44772 5.44772 9 6 9H26Z" fill="black"/>
<path d="M26 13C26.5523 13 27 13.4477 27 14C27 14.5523 26.5523 15 26 15H6C5.44772 15 5 14.5523 5 14C5 13.4477 5.44772 13 6 13H26Z" fill="black"/>
<path d="M17 23C17 23.5523 16.5523 24 16 24C15.4477 24 15 23.5523 15 23V19.4141L13.707 20.707C13.3165 21.0976 12.6835 21.0976 12.293 20.707C11.9024 20.3165 11.9024 19.6835 12.293 19.293L15.293 16.293C15.4805 16.1054 15.7348 16 16 16C16.2652 16 16.5195 16.1054 16.707 16.293L19.707 19.293C20.0976 19.6835 20.0976 20.3165 19.707 20.707C19.3165 21.0976 18.6835 21.0976 18.293 20.707L17 19.4141V23Z" fill="black"/>
</svg>
