<svg width="32" height="32" viewBox="0 0 32 32" fill="none" xmlns="http://www.w3.org/2000/svg">
<path d="M25 8C25 7.44772 24.5523 7 24 7H8C7.44772 7 7 7.44772 7 8V24C7 24.5523 7.44772 25 8 25H24C24.5523 25 25 24.5523 25 24V8ZM27 24C27 25.6569 25.6569 27 24 27H8C6.34315 27 5 25.6569 5 24V8C5 6.34315 6.34315 5 8 5H24C25.6569 5 27 6.34315 27 8V24Z" fill="black"/>
<path d="M26 9C26.5523 9 27 9.44772 27 10C27 10.5523 26.5523 11 26 11H6C5.44772 11 5 10.5523 5 10C5 9.44772 5.44772 9 6 9H26Z" fill="black"/>
<path d="M26 13C26.5523 13 27 13.4477 27 14C27 14.5523 26.5523 15 26 15H6C5.44772 15 5 14.5523 5 14C5 13.4477 5.44772 13 6 13H26Z" fill="black"/>
<path d="M26 17C26.5523 17 27 17.4477 27 18C27 18.5523 26.5523 19 26 19H6C5.44772 19 5 18.5523 5 18C5 17.4477 5.44772 17 6 17H26Z" fill="black"/>
<path d="M26 21C26.5523 21 27 21.4477 27 22C27 22.5523 26.5523 23 26 23H6C5.44772 23 5 22.5523 5 22C5 21.4477 5.44772 21 6 21H26Z" fill="black"/>
</svg>
