<svg width="32" height="32" viewBox="0 0 32 32" fill="none" xmlns="http://www.w3.org/2000/svg">
<path d="M25 8C25 7.44772 24.5523 7 24 7H8C7.44772 7 7 7.44772 7 8V24C7 24.5523 7.44772 25 8 25H24C24.5523 25 25 24.5523 25 24V8ZM27 24C27 25.6569 25.6569 27 24 27H8C6.34315 27 5 25.6569 5 24V8C5 6.34315 6.34315 5 8 5H24C25.6569 5 27 6.34315 27 8V24Z" fill="black"/>
<path d="M26 9C26.5523 9 27 9.44772 27 10C27 10.5523 26.5523 11 26 11H6C5.44772 11 5 10.5523 5 10C5 9.44772 5.44772 9 6 9H26Z" fill="black"/>
<path d="M26 13C26.5523 13 27 13.4477 27 14C27 14.5523 26.5523 15 26 15H6C5.44772 15 5 14.5523 5 14C5 13.4477 5.44772 13 6 13H26Z" fill="black"/>
<path d="M19 16C19.5523 16 20 16.4477 20 17V23C20 23.5523 19.5523 24 19 24H13C12.4477 24 12 23.5523 12 23V17C12 16.4477 12.4477 16 13 16H19ZM14 22H18V18H14V22Z" fill="black"/>
</svg>
