<svg width="32" height="32" viewBox="0 0 32 32" fill="none" xmlns="http://www.w3.org/2000/svg">
<path d="M23 8C23 7.44772 22.5523 7 22 7H10C9.44772 7 9 7.44772 9 8V24C9 24.5523 9.44772 25 10 25H22C22.5523 25 23 24.5523 23 24V8ZM25 24C25 25.6569 23.6569 27 22 27H10C8.34315 27 7 25.6569 7 24V8C7 6.34315 8.34315 5 10 5H22C23.6569 5 25 6.34315 25 8V24Z" fill="black"/>
<path d="M24 9C24.5523 9 25 9.44772 25 10C25 10.5523 24.5523 11 24 11H8C7.44772 11 7 10.5523 7 10C7 9.44772 7.44772 9 8 9H24Z" fill="black"/>
<path d="M24 13C24.5523 13 25 13.4477 25 14C25 14.5523 24.5523 15 24 15H8C7.44772 15 7 14.5523 7 14C7 13.4477 7.44772 13 8 13H24Z" fill="black"/>
<path d="M24 17C24.5523 17 25 17.4477 25 18C25 18.5523 24.5523 19 24 19H8C7.44772 19 7 18.5523 7 18C7 17.4477 7.44772 17 8 17H24Z" fill="black"/>
<path d="M24 21C24.5523 21 25 21.4477 25 22C25 22.5523 24.5523 23 24 23H8C7.44772 23 7 22.5523 7 22C7 21.4477 7.44772 21 8 21H24Z" fill="black"/>
<path d="M4 26V6C4 5.44772 4.44772 5 5 5C5.55228 5 6 5.44772 6 6V26C6 26.5523 5.55228 27 5 27C4.44772 27 4 26.5523 4 26ZM26 26V6C26 5.44772 26.4477 5 27 5C27.5523 5 28 5.44772 28 6V26C28 26.5523 27.5523 27 27 27C26.4477 27 26 26.5523 26 26Z" fill="black"/>
</svg>
