<svg width="32" height="32" viewBox="0 0 32 32" fill="none" xmlns="http://www.w3.org/2000/svg">
<path d="M21 8C21 7.48232 20.6067 7.05621 20.1025 7.00488L20 7H12C11.4477 7 11 7.44772 11 8V24C11 24.5523 11.4477 25 12 25H20C20.5523 25 21 24.5523 21 24V8ZM23 24C23 25.6569 21.6569 27 20 27H12C10.3431 27 9 25.6569 9 24V8C9 6.34315 10.3431 5 12 5H20L20.1543 5.00391C21.7394 5.08421 23 6.39489 23 8V24Z" fill="black"/>
<path d="M18 9C18.5523 9 19 9.44772 19 10V16C19 16.5523 18.5523 17 18 17H14C13.4477 17 13 16.5523 13 16V10C13 9.44772 13.4477 9 14 9H18ZM15 15H17V11H15V15Z" fill="black"/>
<path d="M18 15C18.5523 15 19 15.4477 19 16V22C19 22.5523 18.5523 23 18 23H14C13.4477 23 13 22.5523 13 22V16C13 15.4477 13.4477 15 14 15H18ZM15 21H17V17H15V21Z" fill="black"/>
<path d="M4 24V8C4 6.34315 5.34315 5 7 5H7.2002C7.75239 5.00011 8.2002 5.44778 8.2002 6C8.2002 6.55222 7.75239 6.99989 7.2002 7H7C6.44772 7 6 7.44771 6 8V24C6 24.5523 6.44772 25 7 25H7.2002C7.75239 25.0001 8.2002 25.4478 8.2002 26C8.2002 26.5522 7.75239 26.9999 7.2002 27H7C5.34315 27 4 25.6569 4 24ZM26 24V8C26 7.48232 25.6067 7.05621 25.1025 7.00488L24.8975 6.99512C24.3933 6.94379 24 6.51768 24 6C24 5.44772 24.4477 5 25 5C26.6569 5 28 6.34315 28 8V24C28 25.6569 26.6569 27 25 27C24.4477 27 24 26.5523 24 26C24 25.4823 24.3933 25.0562 24.8975 25.0049L25.1025 24.9951C25.6067 24.9438 26 24.5177 26 24Z" fill="black"/>
</svg>
