<svg width="32" height="32" viewBox="0 0 32 32" fill="none" xmlns="http://www.w3.org/2000/svg">
<path d="M22 8C22 7.44772 21.5523 7 21 7H11C10.4477 7 10 7.44772 10 8V24C10 24.5523 10.4477 25 11 25H21C21.5523 25 22 24.5523 22 24V8ZM24 24C24 25.6569 22.6569 27 21 27H11C9.34315 27 8 25.6569 8 24V8C8 6.34315 9.34315 5 11 5H21C22.6569 5 24 6.34315 24 8V24Z" fill="black"/>
<path d="M19 15C19.4888 15 19.906 15.3537 19.9863 15.8359L20.9863 21.8359C21.0345 22.1258 20.9526 22.4223 20.7627 22.6465C20.5727 22.8706 20.2939 23 20 23H13C12.4477 23 12 22.5523 12 22V16C12 15.4477 12.4477 15 13 15H19ZM14.8467 21H18.8193L18.1533 17H14.1807L14.8467 21Z" fill="black"/>
<path d="M13 16H19V10H13V16Z" fill="black"/>
<path d="M19 17C19.5523 17 20 16.5523 20 16V10C20 9.44772 19.5523 9 19 9H13C12.4477 9 12 9.44772 12 10V16C12 16.5523 12.4477 17 13 17H19ZM14 11H18V15H14V11Z" fill="black"/>
</svg>
