<svg width="32" height="32" viewBox="0 0 32 32" fill="none" xmlns="http://www.w3.org/2000/svg">
<rect x="6" y="12" width="20" height="8" rx="4" ry="4" fill="#222425" stroke="#222425" stroke-width="1"/>
<circle cx="16" cy="16" r="3" fill="white" stroke="#222425" stroke-width="0.5"/>
<path fill-rule="evenodd" clip-rule="evenodd" d="M8 8C8.55228 8 9 7.55228 9 7C9 6.44772 8.55228 6 8 6C7.44772 6 7 6.44772 7 7C7 7.55228 7.44772 8 8 8Z" fill="#222425"/>
<path fill-rule="evenodd" clip-rule="evenodd" d="M16 8C16.5523 8 17 7.55228 17 7C17 6.44772 16.5523 6 16 6C15.4477 6 15 6.44772 15 7C15 7.55228 15.4477 8 16 8Z" fill="#222425"/>
<path fill-rule="evenodd" clip-rule="evenodd" d="M24 8C24.5523 8 25 7.55228 25 7C25 6.44772 24.5523 6 24 6C23.4477 6 23 6.44772 23 7C23 7.55228 23.4477 8 24 8Z" fill="#222425"/>
<path fill-rule="evenodd" clip-rule="evenodd" d="M8 26C8.55228 26 9 25.5523 9 25C9 24.4477 8.55228 24 8 24C7.44772 24 7 24.4477 7 25C7 25.5523 7.44772 26 8 26Z" fill="#222425"/>
<path fill-rule="evenodd" clip-rule="evenodd" d="M16 26C16.5523 26 17 25.5523 17 25C17 24.4477 16.5523 24 16 24C15.4477 24 15 24.4477 15 25C15 25.5523 15.4477 26 16 26Z" fill="#222425"/>
<path fill-rule="evenodd" clip-rule="evenodd" d="M24 26C24.5523 26 25 25.5523 25 25C25 24.4477 24.5523 24 24 24C23.4477 24 23 24.4477 23 25C23 25.5523 23.4477 26 24 26Z" fill="#222425"/>
</svg>