<svg width="32" height="32" viewBox="0 0 32 32" fill="none" xmlns="http://www.w3.org/2000/svg">
<path d="M22 8C22 7.44772 21.5523 7 21 7H11C10.4477 7 10 7.44772 10 8V24C10 24.5523 10.4477 25 11 25H21C21.5523 25 22 24.5523 22 24V8ZM24 24C24 25.6569 22.6569 27 21 27H11C9.34315 27 8 25.6569 8 24V8C8 6.34315 9.34315 5 11 5H21C22.6569 5 24 6.34315 24 8V24Z" fill="black"/>
<path d="M20 9C20.2939 9 20.5727 9.12936 20.7627 9.35352C20.9526 9.57773 21.0345 9.87421 20.9863 10.1641L19.9863 16.1641C19.906 16.6463 19.4888 17 19 17H13C12.4477 17 12 16.5523 12 16V10C12 9.44772 12.4477 9 13 9H20ZM14.1807 15H18.1533L18.8193 11H14.8467L14.1807 15Z" fill="black"/>
<path d="M13 16H19V22H13V16Z" fill="black"/>
<path d="M19 15C19.5523 15 20 15.4477 20 16V22C20 22.5523 19.5523 23 19 23H13C12.4477 23 12 22.5523 12 22V16C12 15.4477 12.4477 15 13 15H19ZM14 21H18V17H14V21Z" fill="black"/>
</svg>
